<?xml version="1.0" encoding="UTF-8" standalone="no"?>
<!DOCTYPE svg PUBLIC "-//W3C//DTD SVG 1.1//EN" "http://www.w3.org/Graphics/SVG/1.1/DTD/svg11.dtd">
<svg width="100%" height="100%" viewBox="0 0 193 71" version="1.1" xmlns="http://www.w3.org/2000/svg" xmlns:xlink="http://www.w3.org/1999/xlink" xml:space="preserve" xmlns:serif="http://www.serif.com/" style="fill-rule:evenodd;clip-rule:evenodd;stroke-linejoin:round;stroke-miterlimit:2;">
    <g transform="matrix(1,0,0,1,-4.6875,-7.369792)">
        <g transform="matrix(1.333333,0,0,1.333333,4,-0)">
            <g>
                <path d="M0.516,51.5C0.516,37.305 12.02,25.801 26.215,25.801L26.215,35.465C17.359,35.465 10.18,42.645 10.18,51.5L0.516,51.5Z" style="fill:rgb(253,253,253);"/>
            </g>
            <g>
                <path d="M12.691,27.465L12.691,19.953C12.691,17.332 14.832,15.191 17.449,15.191L37.969,15.191L37.969,5.527L15.371,5.527C15.121,5.527 14.875,5.535 14.629,5.547L0.945,5.547L0.945,27.465L12.691,27.465Z" style="fill:rgb(253,253,253);"/>
            </g>
            <g transform="matrix(1,0,0,1,27,-0)">
                <g>
                    <g>
                        <g transform="matrix(1,0,0,1,1.13177,47.162087)">
                            <g>
                                <path d="M16.656,0.562C13.781,0.562 11.234,-0.066 9.016,-1.328C6.797,-2.598 5.062,-4.367 3.812,-6.641C2.57,-8.91 1.953,-11.551 1.953,-14.562C1.953,-17.457 2.57,-20.016 3.812,-22.234C5.062,-24.461 6.785,-26.207 8.984,-27.469C11.191,-28.727 13.75,-29.359 16.656,-29.359C19.562,-29.359 22.125,-28.727 24.344,-27.469C26.562,-26.207 28.297,-24.461 29.547,-22.234C30.797,-20.016 31.422,-17.457 31.422,-14.562C31.422,-11.582 30.801,-8.957 29.562,-6.688C28.332,-4.414 26.609,-2.641 24.391,-1.359C22.172,-0.078 19.594,0.562 16.656,0.562ZM16.656,-5.375C18.906,-5.375 20.727,-6.227 22.125,-7.938C23.531,-9.645 24.234,-11.852 24.234,-14.562C24.234,-16.27 23.914,-17.785 23.281,-19.109C22.656,-20.441 21.781,-21.492 20.656,-22.266C19.531,-23.035 18.195,-23.422 16.656,-23.422C15.188,-23.422 13.867,-23.047 12.703,-22.297C11.547,-21.547 10.641,-20.504 9.984,-19.172C9.336,-17.836 9.016,-16.301 9.016,-14.562C9.016,-11.82 9.734,-9.602 11.172,-7.906C12.609,-6.219 14.438,-5.375 16.656,-5.375Z" style="fill:rgb(253,253,253);fill-rule:nonzero;"/>
                            </g>
                        </g>
                    </g>
                    <g>
                        <g transform="matrix(1,0,0,1,34.550251,47.162087)">
                            <g>
                                <path d="M10.047,0L3.125,0L3.125,-28.75L10.047,-28.75L10.047,-25.312C11.141,-26.82 12.359,-27.875 13.703,-28.469C15.055,-29.062 16.57,-29.359 18.25,-29.359L19.062,-29.359L19.062,-22.703L17.469,-22.703C16.312,-22.703 15.312,-22.547 14.469,-22.234C13.633,-21.93 12.926,-21.508 12.344,-20.969C11.594,-20.207 11.02,-19.219 10.625,-18C10.238,-16.789 10.047,-15.234 10.047,-13.328L10.047,0Z" style="fill:rgb(253,253,253);fill-rule:nonzero;"/>
                            </g>
                        </g>
                    </g>
                    <g>
                        <g transform="matrix(1,0,0,1,54.181033,47.162087)">
                            <g>
                                <path d="M16.344,10.922C14.395,10.922 12.473,10.656 10.578,10.125C8.68,9.594 7.051,8.645 5.688,7.281C4.32,5.914 3.438,4 3.031,1.531L10,1.531C10.438,2.938 11.176,3.953 12.219,4.578C13.258,5.211 14.617,5.531 16.297,5.531C18.648,5.531 20.348,4.992 21.391,3.922C22.43,2.848 22.953,1.473 22.953,-0.203L22.953,-4.25C21.797,-2.613 20.566,-1.504 19.266,-0.922C17.973,-0.336 16.473,-0.047 14.766,-0.047C12.266,-0.047 10.066,-0.676 8.172,-1.938C6.273,-3.207 4.797,-4.938 3.734,-7.125C2.68,-9.312 2.156,-11.805 2.156,-14.609C2.156,-17.473 2.68,-20.016 3.734,-22.234C4.797,-24.461 6.273,-26.207 8.172,-27.469C10.066,-28.727 12.266,-29.359 14.766,-29.359C16.473,-29.359 17.973,-29.051 19.266,-28.438C20.566,-27.82 21.797,-26.711 22.953,-25.109L22.953,-28.75L29.875,-28.75L29.875,-1.844C29.875,1.438 29.273,4.004 28.078,5.859C26.891,7.723 25.27,9.031 23.219,9.781C21.164,10.539 18.875,10.922 16.344,10.922ZM16.406,-6C17.875,-6 19.16,-6.375 20.266,-7.125C21.379,-7.875 22.25,-8.906 22.875,-10.219C23.508,-11.539 23.828,-13.035 23.828,-14.703C23.828,-16.379 23.508,-17.875 22.875,-19.188C22.25,-20.508 21.379,-21.547 20.266,-22.297C19.16,-23.047 17.875,-23.422 16.406,-23.422C14.938,-23.422 13.656,-23.035 12.562,-22.266C11.469,-21.492 10.617,-20.453 10.016,-19.141C9.422,-17.828 9.125,-16.348 9.125,-14.703C9.125,-13.066 9.422,-11.586 10.016,-10.266C10.617,-8.953 11.469,-7.91 12.562,-7.141C13.656,-6.379 14.938,-6 16.406,-6Z" style="fill:rgb(253,253,253);fill-rule:nonzero;"/>
                            </g>
                        </g>
                    </g>
                    <g>
                        <g transform="matrix(1,0,0,1,87.189477,47.162087)">
                            <g>
                                <path d="M16.609,0.562C13.672,0.562 11.098,-0.078 8.891,-1.359C6.691,-2.641 4.984,-4.391 3.766,-6.609C2.555,-8.828 1.953,-11.359 1.953,-14.203C1.953,-16.078 2.238,-17.922 2.812,-19.734C3.395,-21.547 4.285,-23.176 5.484,-24.625C6.68,-26.07 8.18,-27.223 9.984,-28.078C11.797,-28.93 13.938,-29.359 16.406,-29.359C18.25,-29.359 20.031,-29.066 21.75,-28.484C23.477,-27.91 25.023,-27.016 26.391,-25.797C27.754,-24.586 28.836,-23.039 29.641,-21.156C30.453,-19.281 30.859,-17.047 30.859,-14.453L30.859,-12.969L9.125,-12.969C9.188,-12.352 9.32,-11.742 9.531,-11.141C9.738,-10.547 9.961,-10.023 10.203,-9.578C10.879,-8.242 11.789,-7.207 12.938,-6.469C14.082,-5.738 15.391,-5.375 16.859,-5.375C18.504,-5.375 19.879,-5.801 20.984,-6.656C22.098,-7.508 22.875,-8.52 23.312,-9.688L30.391,-9.688C29.848,-7.844 28.977,-6.141 27.781,-4.578C26.582,-3.023 25.062,-1.781 23.219,-0.844C21.375,0.094 19.172,0.562 16.609,0.562ZM9.438,-18.141L23.781,-18.141C23.75,-18.516 23.656,-18.941 23.5,-19.422C23.344,-19.898 23.078,-20.363 22.703,-20.812C22.055,-21.832 21.191,-22.598 20.109,-23.109C19.035,-23.617 17.867,-23.875 16.609,-23.875C15.336,-23.875 14.18,-23.617 13.141,-23.109C12.098,-22.598 11.238,-21.832 10.562,-20.812C10.188,-20.363 9.922,-19.898 9.766,-19.422C9.609,-18.941 9.5,-18.516 9.438,-18.141Z" style="fill:rgb(253,253,253);fill-rule:nonzero;"/>
                            </g>
                        </g>
                    </g>
                </g>
            </g>
        </g>
    </g>
</svg>
