<svg xmlns="http://www.w3.org/2000/svg" xmlns:xlink="http://www.w3.org/1999/xlink" width="500" zoomAndPan="magnify" viewBox="0 0 375 374.999991" height="500" preserveAspectRatio="xMidYMid meet" version="1.0"><defs><g/><clipPath id="b70041f636"><path d="M 0.570312 64 L 58 64 L 58 121.296875 L 0.570312 121.296875 Z M 0.570312 64 " clip-rule="nonzero"/></clipPath><clipPath id="8384a02055"><path d="M 1 19.996094 L 82.984375 19.996094 L 82.984375 69 L 1 69 Z M 1 19.996094 " clip-rule="nonzero"/></clipPath><clipPath id="c79cd1c445"><path d="M 61 0.359375 L 323.679688 0.359375 L 323.679688 139.320312 L 61 139.320312 Z M 61 0.359375 " clip-rule="nonzero"/></clipPath><clipPath id="b525ac0545"><rect x="0" width="263" y="0" height="140"/></clipPath><clipPath id="f1fb63bec3"><rect x="0" width="324" y="0" height="140"/></clipPath></defs><g transform="matrix(1, 0, 0, 1, 26, 117)"><g clip-path="url(#f1fb63bec3)"><g clip-path="url(#b70041f636)"><path fill="#000000" d="M 0.582031 121.296875 C 0.582031 90.023438 25.890625 64.667969 57.113281 64.667969 L 57.113281 85.964844 C 37.632812 85.964844 21.84375 101.785156 21.84375 121.296875 Z M 0.582031 121.296875 " fill-opacity="1" fill-rule="evenodd"/></g><g clip-path="url(#8384a02055)"><path fill="#000000" d="M 27.371094 68.332031 L 27.371094 51.777344 C 27.371094 46.011719 32.078125 41.292969 37.839844 41.292969 L 82.972656 41.292969 L 82.972656 19.996094 L 33.261719 19.996094 C 32.714844 19.996094 32.171875 20.011719 31.632812 20.039062 L 1.535156 20.039062 L 1.535156 68.332031 Z M 27.371094 68.332031 " fill-opacity="1" fill-rule="evenodd"/></g><g clip-path="url(#c79cd1c445)"><g transform="matrix(1, 0, 0, 1, 61, 0)"><g clip-path="url(#b525ac0545)"><g fill="#000000" fill-opacity="1"><g transform="translate(0.262543, 111.472119)"><g><path d="M 36.59375 1.234375 C 30.289062 1.234375 24.695312 -0.148438 19.8125 -2.921875 C 14.9375 -5.703125 11.128906 -9.585938 8.390625 -14.578125 C 5.648438 -19.578125 4.28125 -25.378906 4.28125 -31.984375 C 4.28125 -38.359375 5.648438 -43.984375 8.390625 -48.859375 C 11.128906 -53.742188 14.921875 -57.578125 19.765625 -60.359375 C 24.609375 -63.140625 30.21875 -64.53125 36.59375 -64.53125 C 42.976562 -64.53125 48.609375 -63.140625 53.484375 -60.359375 C 58.367188 -57.578125 62.179688 -53.742188 64.921875 -48.859375 C 67.660156 -43.984375 69.03125 -38.359375 69.03125 -31.984375 C 69.03125 -25.453125 67.675781 -19.6875 64.96875 -14.6875 C 62.269531 -9.695312 58.476562 -5.796875 53.59375 -2.984375 C 48.71875 -0.171875 43.050781 1.234375 36.59375 1.234375 Z M 36.59375 -11.828125 C 41.550781 -11.828125 45.566406 -13.703125 48.640625 -17.453125 C 51.722656 -21.203125 53.265625 -26.046875 53.265625 -31.984375 C 53.265625 -35.734375 52.566406 -39.070312 51.171875 -42 C 49.785156 -44.925781 47.851562 -47.234375 45.375 -48.921875 C 42.90625 -50.617188 39.976562 -51.46875 36.59375 -51.46875 C 33.363281 -51.46875 30.472656 -50.640625 27.921875 -48.984375 C 25.367188 -47.328125 23.378906 -45.035156 21.953125 -42.109375 C 20.523438 -39.179688 19.8125 -35.804688 19.8125 -31.984375 C 19.8125 -25.972656 21.390625 -21.109375 24.546875 -17.390625 C 27.703125 -13.679688 31.71875 -11.828125 36.59375 -11.828125 Z M 36.59375 -11.828125 "/></g></g></g><g fill="#000000" fill-opacity="1"><g transform="translate(73.686968, 111.472119)"><g><path d="M 22.078125 0 L 6.875 0 L 6.875 -63.171875 L 22.078125 -63.171875 L 22.078125 -55.625 C 24.472656 -58.925781 27.15625 -61.234375 30.125 -62.546875 C 33.09375 -63.867188 36.414062 -64.53125 40.09375 -64.53125 L 41.890625 -64.53125 L 41.890625 -49.890625 L 38.40625 -49.890625 C 35.851562 -49.890625 33.65625 -49.550781 31.8125 -48.875 C 29.96875 -48.195312 28.410156 -47.257812 27.140625 -46.0625 C 25.484375 -44.40625 24.222656 -42.242188 23.359375 -39.578125 C 22.503906 -36.910156 22.078125 -33.476562 22.078125 -29.28125 Z M 22.078125 0 "/></g></g></g><g fill="#000000" fill-opacity="1"><g transform="translate(116.818157, 111.472119)"><g><path d="M 35.921875 23.984375 C 31.640625 23.984375 27.414062 23.398438 23.25 22.234375 C 19.082031 21.078125 15.5 18.992188 12.5 15.984375 C 9.5 12.984375 7.546875 8.78125 6.640625 3.375 L 21.953125 3.375 C 22.929688 6.457031 24.566406 8.691406 26.859375 10.078125 C 29.148438 11.460938 32.132812 12.15625 35.8125 12.15625 C 40.988281 12.15625 44.722656 10.972656 47.015625 8.609375 C 49.304688 6.242188 50.453125 3.222656 50.453125 -0.453125 L 50.453125 -9.34375 C 47.898438 -5.738281 45.195312 -3.296875 42.34375 -2.015625 C 39.488281 -0.742188 36.1875 -0.109375 32.4375 -0.109375 C 26.957031 -0.109375 22.132812 -1.5 17.96875 -4.28125 C 13.800781 -7.0625 10.550781 -10.851562 8.21875 -15.65625 C 5.894531 -20.457031 4.734375 -25.9375 4.734375 -32.09375 C 4.734375 -38.394531 5.894531 -43.984375 8.21875 -48.859375 C 10.550781 -53.742188 13.800781 -57.578125 17.96875 -60.359375 C 22.132812 -63.140625 26.957031 -64.53125 32.4375 -64.53125 C 36.1875 -64.53125 39.488281 -63.851562 42.34375 -62.5 C 45.195312 -61.144531 47.898438 -58.703125 50.453125 -55.171875 L 50.453125 -63.171875 L 65.65625 -63.171875 L 65.65625 -4.046875 C 65.65625 3.148438 64.335938 8.796875 61.703125 12.890625 C 59.078125 16.984375 55.507812 19.851562 51 21.5 C 46.5 23.15625 41.472656 23.984375 35.921875 23.984375 Z M 36.03125 -13.171875 C 39.257812 -13.171875 42.09375 -13.992188 44.53125 -15.640625 C 46.976562 -17.296875 48.894531 -19.566406 50.28125 -22.453125 C 51.664062 -25.347656 52.359375 -28.632812 52.359375 -32.3125 C 52.359375 -36 51.664062 -39.285156 50.28125 -42.171875 C 48.894531 -45.054688 46.976562 -47.328125 44.53125 -48.984375 C 42.09375 -50.640625 39.257812 -51.46875 36.03125 -51.46875 C 32.800781 -51.46875 29.984375 -50.617188 27.578125 -48.921875 C 25.179688 -47.234375 23.328125 -44.941406 22.015625 -42.046875 C 20.703125 -39.160156 20.046875 -35.914062 20.046875 -32.3125 C 20.046875 -28.707031 20.703125 -25.460938 22.015625 -22.578125 C 23.328125 -19.691406 25.179688 -17.398438 27.578125 -15.703125 C 29.984375 -14.015625 32.800781 -13.171875 36.03125 -13.171875 Z M 36.03125 -13.171875 "/></g></g></g><g fill="#000000" fill-opacity="1"><g transform="translate(189.341681, 111.472119)"><g><path d="M 36.484375 1.234375 C 30.023438 1.234375 24.375 -0.171875 19.53125 -2.984375 C 14.695312 -5.796875 10.945312 -9.640625 8.28125 -14.515625 C 5.613281 -19.398438 4.28125 -24.957031 4.28125 -31.1875 C 4.28125 -35.320312 4.914062 -39.378906 6.1875 -43.359375 C 7.46875 -47.335938 9.421875 -50.921875 12.046875 -54.109375 C 14.671875 -57.296875 17.972656 -59.828125 21.953125 -61.703125 C 25.929688 -63.585938 30.625 -64.53125 36.03125 -64.53125 C 40.082031 -64.53125 44.003906 -63.890625 47.796875 -62.609375 C 51.585938 -61.335938 54.984375 -59.367188 57.984375 -56.703125 C 60.992188 -54.035156 63.378906 -50.632812 65.140625 -46.5 C 66.910156 -42.375 67.796875 -37.457031 67.796875 -31.75 L 67.796875 -28.484375 L 20.046875 -28.484375 C 20.191406 -27.140625 20.488281 -25.804688 20.9375 -24.484375 C 21.394531 -23.171875 21.882812 -22.03125 22.40625 -21.0625 C 23.90625 -18.132812 25.910156 -15.863281 28.421875 -14.25 C 30.941406 -12.632812 33.816406 -11.828125 37.046875 -11.828125 C 40.648438 -11.828125 43.671875 -12.765625 46.109375 -14.640625 C 48.546875 -16.515625 50.253906 -18.726562 51.234375 -21.28125 L 66.78125 -21.28125 C 65.570312 -17.226562 63.65625 -13.492188 61.03125 -10.078125 C 58.40625 -6.660156 55.066406 -3.921875 51.015625 -1.859375 C 46.960938 0.203125 42.117188 1.234375 36.484375 1.234375 Z M 20.71875 -39.859375 L 52.25 -39.859375 C 52.175781 -40.691406 51.96875 -41.628906 51.625 -42.671875 C 51.289062 -43.722656 50.710938 -44.738281 49.890625 -45.71875 C 48.460938 -47.96875 46.566406 -49.65625 44.203125 -50.78125 C 41.835938 -51.90625 39.265625 -52.46875 36.484375 -52.46875 C 33.703125 -52.46875 31.164062 -51.90625 28.875 -50.78125 C 26.59375 -49.65625 24.703125 -47.96875 23.203125 -45.71875 C 22.367188 -44.738281 21.785156 -43.722656 21.453125 -42.671875 C 21.117188 -41.628906 20.875 -40.691406 20.71875 -39.859375 Z M 20.71875 -39.859375 "/></g></g></g></g></g></g></g></g></svg>